<svg width="257" height="238" viewBox="0 0 257 238" fill="none" xmlns="http://www.w3.org/2000/svg">
<path d="M0 30.923C0 13.8447 13.8447 0 30.9231 0C48.0014 0 61.8461 13.8447 61.8461 30.923V149.077C61.8461 166.155 48.0014 180 30.9231 180C13.8447 180 0 166.155 0 149.077V30.923Z" fill="#EA4235"/>
<path d="M129.23 30.923C129.23 13.8447 143.075 0 160.153 0C177.232 0 191.076 13.8447 191.076 30.923V149.077C191.076 166.155 177.232 180 160.153 180C143.075 180 129.23 166.155 129.23 149.077V30.923Z" fill="#FABC05"/>
<path d="M64.6154 121.385C64.6154 104.306 78.4601 90.4617 95.5385 90.4617C112.617 90.4617 126.462 104.306 126.462 121.385V149.077C126.462 166.155 112.617 180 95.5385 180C78.4601 180 64.6154 166.155 64.6154 149.077V121.385Z" fill="#4286F5"/>
<path d="M193.849 30.9231C193.849 13.8447 207.694 0 224.772 0C241.851 0 255.695 13.8447 255.695 30.923V58.6153C255.695 75.6937 241.851 89.5384 224.772 89.5384C207.694 89.5384 193.849 75.6937 193.849 58.6154V30.9231Z" fill="#34A853"/>
<path d="M13.8568 228.441C12.8566 228.441 11.9004 228.294 10.9884 228C10.0764 227.721 9.23789 227.287 8.47297 226.698C7.70805 226.11 7.0461 225.367 6.48712 224.47H6.44299V228H2.78019V195.123H6.53125V208.141H6.57538C7.07552 207.274 7.7007 206.553 8.45091 205.979C9.20112 205.405 10.0396 204.979 10.9663 204.699C11.8931 204.405 12.8566 204.258 13.8568 204.258C15.8868 204.258 17.6594 204.766 19.1745 205.781C20.6896 206.796 21.8664 208.215 22.7049 210.039C23.5434 211.848 23.9626 213.952 23.9626 216.35C23.9626 218.733 23.5434 220.836 22.7049 222.66C21.8664 224.47 20.6896 225.889 19.1745 226.919C17.6594 227.934 15.8868 228.441 13.8568 228.441ZM13.2832 225.065C14.6365 225.065 15.828 224.734 16.8577 224.072C17.8874 223.41 18.6964 222.432 19.2848 221.138C19.8732 219.843 20.1674 218.247 20.1674 216.35C20.1674 214.437 19.8732 212.834 19.2848 211.539C18.6964 210.245 17.8874 209.267 16.8577 208.605C15.828 207.943 14.6365 207.612 13.2832 207.612C11.8416 207.612 10.5912 207.972 9.53209 208.693C8.47297 209.414 7.65657 210.429 7.08288 211.738C6.50918 213.047 6.22234 214.584 6.22234 216.35C6.22234 218.1 6.50918 219.63 7.08288 220.939C7.65657 222.248 8.47297 223.263 9.53209 223.984C10.5912 224.705 11.8416 225.065 13.2832 225.065Z" fill="white"/>
<path d="M32.0826 195.123V228H28.3315V195.123H32.0826Z" fill="white"/>
<path d="M44.7479 228.353C43.2033 228.353 41.8206 228.088 40.5997 227.559C39.3787 227.029 38.4079 226.242 37.6871 225.198C36.981 224.139 36.628 222.837 36.628 221.292C36.628 219.954 36.8854 218.865 37.4002 218.027C37.9298 217.188 38.6285 216.534 39.4964 216.063C40.379 215.577 41.3719 215.21 42.4752 214.96C43.5932 214.709 44.7332 214.511 45.8953 214.364C47.381 214.158 48.5504 214.003 49.4036 213.9C50.2568 213.797 50.8599 213.628 51.2129 213.393C51.5807 213.158 51.7646 212.746 51.7646 212.157V211.937C51.7646 211.083 51.5586 210.333 51.1468 209.686C50.7496 209.024 50.1612 208.509 49.3815 208.141C48.6166 207.759 47.6899 207.568 46.6014 207.568C45.5275 207.568 44.5714 207.752 43.7329 208.119C42.9091 208.472 42.2472 208.958 41.747 209.576C41.2616 210.194 40.9895 210.892 40.9306 211.672H37.1134C37.1869 210.245 37.6282 208.98 38.4373 207.877C39.2463 206.759 40.3496 205.876 41.747 205.229C43.1445 204.582 44.7626 204.258 46.6014 204.258C47.9547 204.258 49.1756 204.442 50.2641 204.81C51.3674 205.177 52.3015 205.7 53.0664 206.376C53.846 207.053 54.4418 207.862 54.8537 208.803C55.2656 209.745 55.4715 210.789 55.4715 211.937V228H51.7646V224.69H51.6763C51.3968 225.249 50.9849 225.816 50.4407 226.389C49.8964 226.948 49.1609 227.419 48.2342 227.801C47.3221 228.169 46.1601 228.353 44.7479 228.353ZM45.2775 224.999C46.8073 224.999 48.0503 224.727 49.0064 224.183C49.9626 223.624 50.6613 222.903 51.1026 222.02C51.5439 221.138 51.7646 220.189 51.7646 219.174V216.261C51.6175 216.394 51.3453 216.519 50.9482 216.637C50.5657 216.754 50.0876 216.872 49.5139 216.99C48.955 217.093 48.3445 217.195 47.6825 217.298C47.0353 217.401 46.3807 217.497 45.7188 217.585C44.8214 217.703 43.9683 217.909 43.1592 218.203C42.3649 218.483 41.7176 218.887 41.2175 219.417C40.7173 219.932 40.4673 220.63 40.4673 221.513C40.4673 222.234 40.6585 222.859 41.041 223.388C41.4381 223.903 41.9971 224.3 42.7179 224.58C43.4387 224.859 44.2919 224.999 45.2775 224.999Z" fill="white"/>
<path d="M70.6522 228.53C68.5046 228.53 66.6143 228.015 64.9815 226.985C63.3634 225.941 62.0984 224.506 61.1863 222.682C60.289 220.858 59.8404 218.762 59.8404 216.394C59.8404 214.011 60.289 211.9 61.1863 210.061C62.0984 208.222 63.3634 206.781 64.9815 205.736C66.6143 204.692 68.5046 204.17 70.6522 204.17C71.9761 204.17 73.1971 204.376 74.315 204.788C75.4477 205.185 76.4406 205.751 77.2938 206.487C78.1617 207.207 78.8678 208.061 79.4121 209.046C79.9563 210.032 80.3094 211.113 80.4712 212.29H76.676C76.5436 211.598 76.3156 210.966 75.992 210.392C75.6684 209.818 75.2491 209.326 74.7343 208.914C74.2341 208.487 73.6457 208.156 72.9691 207.921C72.2924 207.685 71.5201 207.568 70.6522 207.568C69.1959 207.568 67.9382 207.936 66.8791 208.671C65.8347 209.392 65.033 210.414 64.474 211.738C63.915 213.062 63.6356 214.614 63.6356 216.394C63.6356 218.159 63.915 219.696 64.474 221.005C65.033 222.315 65.8347 223.33 66.8791 224.05C67.9235 224.771 69.1812 225.132 70.6522 225.132C71.5201 225.132 72.2851 225.021 72.947 224.801C73.609 224.58 74.1753 224.264 74.646 223.852C75.1314 223.425 75.536 222.925 75.8596 222.351C76.1832 221.763 76.4333 221.116 76.6098 220.41H80.4712C80.3094 221.557 79.9563 222.623 79.4121 223.609C78.8678 224.595 78.1617 225.455 77.2938 226.191C76.4259 226.926 75.4256 227.5 74.293 227.912C73.175 228.324 71.9614 228.53 70.6522 228.53Z" fill="white"/>
<path d="M88.1939 219.615V215.18H88.4808L99.3147 204.699H104.169L92.8276 215.732H92.4746L88.1939 219.615ZM84.6856 228V195.123H88.4367V228H84.6856ZM100.153 228L90.6652 216.57L93.313 213.967L104.919 228H100.153Z" fill="white"/>
<path d="M107.633 237.223V204.699H111.296V208.141H111.34C111.84 207.274 112.473 206.553 113.238 205.979C114.003 205.405 114.856 204.979 115.797 204.699C116.739 204.405 117.71 204.258 118.71 204.258C120.74 204.258 122.512 204.766 124.028 205.781C125.543 206.796 126.719 208.215 127.558 210.039C128.396 211.848 128.816 213.952 128.816 216.35C128.816 218.733 128.396 220.836 127.558 222.66C126.719 224.47 125.543 225.889 124.028 226.919C122.512 227.934 120.74 228.441 118.71 228.441C117.71 228.441 116.761 228.294 115.863 228C114.966 227.721 114.142 227.287 113.392 226.698C112.642 226.11 111.987 225.367 111.428 224.47H111.384V237.223H107.633ZM118.136 225.065C119.49 225.065 120.681 224.734 121.711 224.072C122.74 223.41 123.549 222.432 124.138 221.138C124.726 219.843 125.02 218.247 125.02 216.35C125.02 214.437 124.726 212.834 124.138 211.539C123.549 210.245 122.74 209.267 121.711 208.605C120.681 207.943 119.49 207.612 118.136 207.612C116.695 207.612 115.444 207.972 114.385 208.693C113.326 209.414 112.51 210.429 111.936 211.738C111.362 213.047 111.075 214.584 111.075 216.35C111.075 218.1 111.362 219.63 111.936 220.939C112.51 222.248 113.326 223.263 114.385 223.984C115.444 224.705 116.695 225.065 118.136 225.065Z" fill="#EA4235"/>
<path d="M142.805 228.53C140.657 228.53 138.767 228.015 137.134 226.985C135.516 225.941 134.251 224.506 133.339 222.682C132.442 220.858 131.993 218.762 131.993 216.394C131.993 214.011 132.442 211.9 133.339 210.061C134.251 208.222 135.516 206.781 137.134 205.736C138.767 204.692 140.657 204.17 142.805 204.17C144.967 204.17 146.858 204.692 148.476 205.736C150.094 206.781 151.351 208.222 152.249 210.061C153.161 211.9 153.617 214.011 153.617 216.394C153.617 218.762 153.161 220.858 152.249 222.682C151.351 224.506 150.094 225.941 148.476 226.985C146.858 228.015 144.967 228.53 142.805 228.53ZM142.805 225.132C144.276 225.132 145.534 224.771 146.578 224.05C147.622 223.33 148.424 222.315 148.983 221.005C149.542 219.681 149.822 218.144 149.822 216.394C149.822 214.614 149.542 213.069 148.983 211.76C148.424 210.436 147.622 209.407 146.578 208.671C145.534 207.936 144.276 207.568 142.805 207.568C141.349 207.568 140.091 207.936 139.032 208.671C137.987 209.392 137.186 210.414 136.627 211.738C136.068 213.062 135.788 214.614 135.788 216.394C135.788 218.159 136.068 219.696 136.627 221.005C137.186 222.315 137.987 223.33 139.032 224.05C140.076 224.771 141.334 225.132 142.805 225.132Z" fill="#EA4235"/>
<path d="M166.106 228.53C164.443 228.53 162.936 228.257 161.582 227.713C160.229 227.169 159.133 226.345 158.295 225.242C157.456 224.124 156.985 222.719 156.882 221.027H160.589C160.722 222.41 161.251 223.469 162.178 224.205C163.105 224.94 164.384 225.308 166.017 225.308C167.635 225.308 168.908 224.97 169.835 224.293C170.776 223.616 171.247 222.763 171.247 221.734C171.247 220.851 170.923 220.145 170.276 219.615C169.629 219.086 168.783 218.703 167.738 218.468L163.987 217.585C161.825 217.07 160.185 216.261 159.067 215.158C157.964 214.055 157.412 212.657 157.412 210.966C157.412 209.642 157.765 208.472 158.471 207.457C159.192 206.428 160.185 205.626 161.45 205.052C162.73 204.464 164.201 204.17 165.863 204.17C167.481 204.17 168.93 204.479 170.21 205.096C171.504 205.7 172.526 206.56 173.277 207.678C174.042 208.796 174.446 210.127 174.49 211.672H170.827C170.813 210.436 170.357 209.414 169.459 208.605C168.562 207.796 167.363 207.391 165.863 207.391C164.436 207.391 163.296 207.737 162.443 208.428C161.59 209.12 161.163 209.966 161.163 210.966C161.163 211.848 161.487 212.562 162.134 213.106C162.781 213.636 163.664 214.033 164.782 214.298L168.533 215.18C170.769 215.71 172.409 216.504 173.453 217.563C174.498 218.608 175.02 219.968 175.02 221.645C175.02 223.087 174.63 224.323 173.85 225.352C173.071 226.382 172.004 227.169 170.651 227.713C169.312 228.257 167.797 228.53 166.106 228.53Z" fill="#EA4235"/>
<path d="M179.433 228V204.699H183.184V228H179.433ZM181.308 200.154C180.602 200.154 179.999 199.904 179.499 199.404C178.999 198.904 178.749 198.3 178.749 197.594C178.749 196.888 178.999 196.285 179.499 195.785C179.999 195.285 180.602 195.035 181.308 195.035C182.014 195.035 182.618 195.285 183.118 195.785C183.618 196.285 183.868 196.888 183.868 197.594C183.868 198.3 183.618 198.904 183.118 199.404C182.618 199.904 182.014 200.154 181.308 200.154Z" fill="#EA4235"/>
<path d="M199.358 204.699V207.921H186.736V204.699H199.358ZM190.885 198.345H194.636V222.351C194.636 223.249 194.82 223.881 195.187 224.249C195.57 224.602 196.239 224.779 197.195 224.779C197.534 224.779 197.894 224.779 198.276 224.779C198.674 224.779 199.034 224.779 199.358 224.779V228C198.975 228 198.556 228 198.1 228C197.644 228 197.225 228 196.842 228C194.842 228 193.349 227.566 192.363 226.698C191.377 225.816 190.885 224.499 190.885 222.749V198.345Z" fill="#EA4235"/>
<path d="M203.263 228V204.699H207.014V228H203.263ZM205.139 200.154C204.433 200.154 203.829 199.904 203.329 199.404C202.829 198.904 202.579 198.3 202.579 197.594C202.579 196.888 202.829 196.285 203.329 195.785C203.829 195.285 204.433 195.035 205.139 195.035C205.845 195.035 206.448 195.285 206.948 195.785C207.448 196.285 207.698 196.888 207.698 197.594C207.698 198.3 207.448 198.904 206.948 199.404C206.448 199.904 205.845 200.154 205.139 200.154Z" fill="#EA4235"/>
<path d="M222.195 228.53C220.047 228.53 218.157 228.015 216.524 226.985C214.906 225.941 213.641 224.506 212.729 222.682C211.832 220.858 211.383 218.762 211.383 216.394C211.383 214.011 211.832 211.9 212.729 210.061C213.641 208.222 214.906 206.781 216.524 205.736C218.157 204.692 220.047 204.17 222.195 204.17C224.357 204.17 226.247 204.692 227.866 205.736C229.484 206.781 230.741 208.222 231.639 210.061C232.551 211.9 233.007 214.011 233.007 216.394C233.007 218.762 232.551 220.858 231.639 222.682C230.741 224.506 229.484 225.941 227.866 226.985C226.247 228.015 224.357 228.53 222.195 228.53ZM222.195 225.132C223.666 225.132 224.924 224.771 225.968 224.05C227.012 223.33 227.814 222.315 228.373 221.005C228.932 219.681 229.212 218.144 229.212 216.394C229.212 214.614 228.932 213.069 228.373 211.76C227.814 210.436 227.012 209.407 225.968 208.671C224.924 207.936 223.666 207.568 222.195 207.568C220.739 207.568 219.481 207.936 218.422 208.671C217.377 209.392 216.576 210.414 216.017 211.738C215.458 213.062 215.178 214.614 215.178 216.394C215.178 218.159 215.458 219.696 216.017 221.005C216.576 222.315 217.377 223.33 218.422 224.05C219.466 224.771 220.724 225.132 222.195 225.132Z" fill="#EA4235"/>
<path d="M241.127 214.364V228H237.376V204.699H241.038V210.348H239.979C240.744 208.244 241.803 206.707 243.157 205.736C244.525 204.751 246.128 204.258 247.967 204.258C249.541 204.258 250.975 204.604 252.27 205.295C253.564 205.972 254.594 206.994 255.359 208.362C256.138 209.73 256.528 211.451 256.528 213.525V228H252.777V213.79C252.777 211.775 252.292 210.26 251.321 209.245C250.365 208.215 249.011 207.7 247.261 207.7C246.128 207.7 245.098 207.928 244.172 208.384C243.245 208.84 242.502 209.561 241.943 210.547C241.399 211.517 241.127 212.79 241.127 214.364Z" fill="#EA4235"/>
</svg>
